<mxfile host="app.diagrams.net" agent="Mozilla/5.0 (Windows NT 10.0; Win64; x64) AppleWebKit/537.36 (KHTML, like Gecko) Chrome/126.0.0.0 YaBrowser/24.7.0.0 Safari/537.36" version="24.7.14">
  <diagram name="Страница — 1" id="EZrRZplgt3jkxQLuxHxC">
    <mxGraphModel dx="1146" dy="663" grid="1" gridSize="10" guides="1" tooltips="1" connect="1" arrows="1" fold="1" page="1" pageScale="1" pageWidth="827" pageHeight="1169" math="0" shadow="0">
      <root>
        <mxCell id="0" />
        <mxCell id="1" parent="0" />
        <mxCell id="9uFnDAk2Y2c-RcscimrC-6" style="edgeStyle=orthogonalEdgeStyle;rounded=0;orthogonalLoop=1;jettySize=auto;html=1;entryX=0;entryY=0.5;entryDx=0;entryDy=0;exitX=0.5;exitY=0;exitDx=0;exitDy=0;" edge="1" parent="1" source="9uFnDAk2Y2c-RcscimrC-29" target="9uFnDAk2Y2c-RcscimrC-26">
          <mxGeometry relative="1" as="geometry">
            <mxPoint x="160" y="290" as="sourcePoint" />
            <mxPoint x="330" y="175" as="targetPoint" />
          </mxGeometry>
        </mxCell>
        <mxCell id="9uFnDAk2Y2c-RcscimrC-8" style="edgeStyle=orthogonalEdgeStyle;rounded=0;orthogonalLoop=1;jettySize=auto;html=1;entryX=1;entryY=0.5;entryDx=0;entryDy=0;exitX=0.5;exitY=0;exitDx=0;exitDy=0;" edge="1" parent="1" source="9uFnDAk2Y2c-RcscimrC-30" target="9uFnDAk2Y2c-RcscimrC-26">
          <mxGeometry relative="1" as="geometry">
            <mxPoint x="570" y="260" as="sourcePoint" />
            <mxPoint x="450" y="175" as="targetPoint" />
          </mxGeometry>
        </mxCell>
        <mxCell id="9uFnDAk2Y2c-RcscimrC-16" style="edgeStyle=orthogonalEdgeStyle;rounded=0;orthogonalLoop=1;jettySize=auto;html=1;entryX=0;entryY=0.5;entryDx=0;entryDy=0;exitX=0.5;exitY=0;exitDx=0;exitDy=0;" edge="1" parent="1" source="9uFnDAk2Y2c-RcscimrC-32" target="9uFnDAk2Y2c-RcscimrC-29">
          <mxGeometry relative="1" as="geometry">
            <mxPoint x="30" y="470" as="sourcePoint" />
            <mxPoint x="100" y="320" as="targetPoint" />
          </mxGeometry>
        </mxCell>
        <mxCell id="9uFnDAk2Y2c-RcscimrC-17" style="edgeStyle=orthogonalEdgeStyle;rounded=0;orthogonalLoop=1;jettySize=auto;html=1;entryX=0.5;entryY=1;entryDx=0;entryDy=0;" edge="1" parent="1" target="9uFnDAk2Y2c-RcscimrC-29">
          <mxGeometry relative="1" as="geometry">
            <mxPoint x="160" y="470" as="sourcePoint" />
            <mxPoint x="160" y="350" as="targetPoint" />
          </mxGeometry>
        </mxCell>
        <mxCell id="9uFnDAk2Y2c-RcscimrC-18" style="edgeStyle=orthogonalEdgeStyle;rounded=0;orthogonalLoop=1;jettySize=auto;html=1;exitX=0.407;exitY=0;exitDx=0;exitDy=0;entryX=1;entryY=0.5;entryDx=0;entryDy=0;exitPerimeter=0;" edge="1" parent="1" source="9uFnDAk2Y2c-RcscimrC-36" target="9uFnDAk2Y2c-RcscimrC-29">
          <mxGeometry relative="1" as="geometry">
            <mxPoint x="290" y="470" as="sourcePoint" />
            <mxPoint x="230" y="320" as="targetPoint" />
          </mxGeometry>
        </mxCell>
        <mxCell id="9uFnDAk2Y2c-RcscimrC-19" style="edgeStyle=orthogonalEdgeStyle;rounded=0;orthogonalLoop=1;jettySize=auto;html=1;entryX=0;entryY=0.5;entryDx=0;entryDy=0;exitX=0.5;exitY=0;exitDx=0;exitDy=0;" edge="1" parent="1" source="9uFnDAk2Y2c-RcscimrC-37" target="9uFnDAk2Y2c-RcscimrC-30">
          <mxGeometry relative="1" as="geometry">
            <mxPoint x="450" y="470" as="sourcePoint" />
            <mxPoint x="480" y="340" as="targetPoint" />
          </mxGeometry>
        </mxCell>
        <mxCell id="9uFnDAk2Y2c-RcscimrC-21" style="edgeStyle=orthogonalEdgeStyle;rounded=0;orthogonalLoop=1;jettySize=auto;html=1;entryX=1;entryY=0.5;entryDx=0;entryDy=0;exitX=0.5;exitY=0;exitDx=0;exitDy=0;" edge="1" parent="1" source="9uFnDAk2Y2c-RcscimrC-39" target="9uFnDAk2Y2c-RcscimrC-30">
          <mxGeometry relative="1" as="geometry">
            <mxPoint x="710" y="470" as="sourcePoint" />
            <mxPoint x="630" y="320" as="targetPoint" />
          </mxGeometry>
        </mxCell>
        <mxCell id="9uFnDAk2Y2c-RcscimrC-20" style="edgeStyle=orthogonalEdgeStyle;rounded=0;orthogonalLoop=1;jettySize=auto;html=1;" edge="1" parent="1">
          <mxGeometry relative="1" as="geometry">
            <mxPoint x="580" y="470" as="sourcePoint" />
            <mxPoint x="580" y="360" as="targetPoint" />
          </mxGeometry>
        </mxCell>
        <mxCell id="9uFnDAk2Y2c-RcscimrC-26" value="&lt;div style=&quot;font-weight: 400; text-align: left;&quot;&gt;&lt;span style=&quot;background-color: initial;&quot;&gt;Class Animals&lt;/span&gt;&lt;/div&gt;" style="swimlane;whiteSpace=wrap;html=1;" vertex="1" parent="1">
          <mxGeometry x="290" y="130" width="160" height="70" as="geometry" />
        </mxCell>
        <mxCell id="9uFnDAk2Y2c-RcscimrC-29" value="&lt;span style=&quot;font-weight: 400;&quot;&gt;Class homeAnimals&lt;/span&gt;" style="swimlane;whiteSpace=wrap;html=1;" vertex="1" parent="1">
          <mxGeometry x="90" y="280" width="140" height="80" as="geometry" />
        </mxCell>
        <mxCell id="9uFnDAk2Y2c-RcscimrC-30" value="&lt;span style=&quot;font-weight: 400;&quot;&gt;Class packedAnimals&lt;/span&gt;" style="swimlane;whiteSpace=wrap;html=1;" vertex="1" parent="1">
          <mxGeometry x="500" y="280" width="150" height="80" as="geometry" />
        </mxCell>
        <mxCell id="9uFnDAk2Y2c-RcscimrC-32" value="Class Dog" style="swimlane;whiteSpace=wrap;html=1;" vertex="1" parent="1">
          <mxGeometry y="470" width="100" height="70" as="geometry" />
        </mxCell>
        <mxCell id="9uFnDAk2Y2c-RcscimrC-35" value="Class Cat" style="swimlane;whiteSpace=wrap;html=1;" vertex="1" parent="1">
          <mxGeometry x="110" y="470" width="100" height="70" as="geometry" />
        </mxCell>
        <mxCell id="9uFnDAk2Y2c-RcscimrC-36" value="Class Hamster" style="swimlane;whiteSpace=wrap;html=1;startSize=23;" vertex="1" parent="1">
          <mxGeometry x="220" y="470" width="100" height="70" as="geometry" />
        </mxCell>
        <mxCell id="9uFnDAk2Y2c-RcscimrC-37" value="Class Horse" style="swimlane;whiteSpace=wrap;html=1;" vertex="1" parent="1">
          <mxGeometry x="420" y="470" width="100" height="70" as="geometry" />
        </mxCell>
        <mxCell id="9uFnDAk2Y2c-RcscimrC-38" value="Class Camel" style="swimlane;whiteSpace=wrap;html=1;" vertex="1" parent="1">
          <mxGeometry x="530" y="470" width="100" height="70" as="geometry" />
        </mxCell>
        <mxCell id="9uFnDAk2Y2c-RcscimrC-39" value="Class Donkey" style="swimlane;whiteSpace=wrap;html=1;" vertex="1" parent="1">
          <mxGeometry x="640" y="470" width="100" height="70" as="geometry" />
        </mxCell>
      </root>
    </mxGraphModel>
  </diagram>
</mxfile>
